<svg xmlns="http://www.w3.org/2000/svg" xmlns:xlink="http://www.w3.org/1999/xlink" version="1.1" viewBox="150.56 81.54 398.69 396.93">
 <defs>
 
 </defs>
 <g>
  <path d="m549.19 268.02c0-47.711-15.848-94.414-44.574-131.54-2.1836-3.5859-4.5938-7.0547-7.168-10.359-7.5039-9.5742-16.574-17.809-27.047-24.473-6.4961-4.1445-13.609-7.6719-21.055-10.586-18.93-7.2812-40.207-10.414-63.391-9.2969-23.07 1.1211-46.762 6.3828-70.504 15.68-24.527 9.5742-47.992 23.07-69.719 40.098-21.727 17.023-40.488 36.512-55.719 58.016-14.727 20.777-25.535 42.504-32.199 64.68-6.6641 22.176-8.7344 43.68-6.2148 63.785 0.50391 4.0312 1.2305 7.9531 2.0703 11.703v0.28125c4.6484 13.832 10.641 27.273 17.863 39.816l0.16797 0.22266-0.11328-0.16797c17.695 30.688 42.84 56.336 72.688 74.312 30.801 18.48 65.969 28.281 101.81 28.281 37.855 0 74.816-10.863 106.85-31.414 12.098-7.7852 25.93-11.48 38.922-10.473 5.6562 0.44922 10.695-1.2305 14.168-4.7031 3.4727-3.4727 5.207-8.7344 4.7031-14.504-0.22266-2.2383-0.33594-4.4805-0.33594-6.6641 0-11.648 2.9102-22.625 8.5117-31.977 19.824-33.152 30.352-71.457 30.352-110.66zm-370.66 107.52c-0.72656-0.89453-1.3984-1.8477-2.0703-2.8008-7-12.152-12.77-25.09-17.191-38.473-0.28125-1.3438-0.55859-2.6875-0.83984-4.0312l-0.22266-1.3984c-0.22266-1.3984-0.44922-2.7422-0.67188-4.1992-0.054688-0.50391-0.11328-0.95312-0.16797-1.457-2.4062-19.32-0.39062-39.984 6.0469-61.434 6.4414-21.559 17.023-42.727 31.359-63 14.895-21.055 33.266-40.152 54.543-56.84 21.281-16.688 44.297-29.848 68.266-39.258 23.129-9.0703 46.258-14.223 68.711-15.289 2.9688-0.11328 5.8789-0.22266 8.7344-0.22266 7.8945 0 15.512 0.50391 22.902 1.5664 0.78516 0.11328 1.5117 0.22266 2.2969 0.33594 9.5195 1.5117 18.594 3.9219 27.105 7.2227 0.78516 0.28125 1.5664 0.61719 2.3516 0.95313 3.1914 1.2891 6.3281 2.7422 9.2969 4.3125 0.39063 0.22266 0.83984 0.44922 1.2305 0.67187 1.1758 0.61719 2.3516 1.2891 3.5273 1.9609 0.33594 0.16797 0.67188 0.39062 1.0078 0.55859 0.44922 0.28125 0.89453 0.55859 1.3438 0.83984 0.39062 0.22266 0.78516 0.50391 1.1758 0.72656 12.039 9.6875 23.016 20.887 32.648 33.266 0.22266 0.33594 0.44922 0.72656 0.61719 1.0625 0.22266 0.39062 0.44922 0.72656 0.67188 1.1211 0.50391 0.83984 0.95312 1.7344 1.457 2.5742 0.39062 0.78516 0.78516 1.5117 1.1758 2.2969 1.8477 3.7539 3.4727 7.6172 4.8711 11.594 0.16797 0.44922 0.33594 0.89453 0.44922 1.3438 0.28125 0.89453 0.61719 1.793 0.83984 2.6875 0.28125 0.89453 0.55859 1.793 0.78516 2.6875 0.28125 1.0078 0.55859 2.0156 0.78516 3.0781 0.11328 0.33594 0.16797 0.72656 0.28125 1.0625 1.0078 4.1445 1.793 8.3984 2.2969 12.77 2.4062 19.32 0.39062 39.984-6.0469 61.434-6.4414 21.504-17.023 42.727-31.359 63-14.895 21-33.207 40.152-54.543 56.785-21.336 16.688-44.297 29.902-68.266 39.258-23.129 9.0703-46.258 14.223-68.711 15.289-22.344 1.0625-42.895-1.9023-61.039-8.9609-18.703-7.2227-34.047-18.367-45.641-33.207zm326.48 42.336c0.28125 2.8555 0 6.9453-3.0234 9.9102-3.0234 2.9688-6.8867 3.2461-9.6875 3.0234-14.223-1.1211-29.344 2.9102-42.449 11.367-31.078 19.992-66.977 30.52-103.77 30.52-58.742 0-114.46-27.664-151.7-73.754 0.16797 0.11328 0.33594 0.28125 0.55859 0.39062 0.22266 0.16797 0.44922 0.33594 0.61719 0.44922 0.22266 0.16797 0.50391 0.39062 0.72656 0.55859 0.33594 0.22266 0.67188 0.50391 1.0078 0.72656 0.11328 0.11328 0.28125 0.16797 0.39062 0.28125 0.33594 0.22266 0.67188 0.44922 1.0078 0.67188 0.28125 0.16797 0.55859 0.39062 0.83984 0.55859 0.22266 0.16797 0.44922 0.28125 0.67187 0.44922 0.28125 0.22266 0.61719 0.39062 0.89453 0.55859 0.22266 0.16797 0.50391 0.33594 0.72656 0.44922 0.28125 0.16797 0.55859 0.33594 0.78516 0.50391l0.95313 0.55859s0.44922 0.28125 0.67187 0.39062c0.39063 0.22266 0.72656 0.44922 1.1211 0.61719 0.16797 0.11328 0.39062 0.22266 0.55859 0.33594 0.33594 0.16797 0.67188 0.39062 1.0078 0.55859 0.22266 0.16797 0.50391 0.28125 0.78516 0.39062 0.28125 0.16797 0.61719 0.33594 0.89453 0.50391 0.28125 0.16797 0.55859 0.28125 0.78516 0.44922 0.44922 0.22266 0.89453 0.44922 1.3438 0.67188 0.11328 0 0.16797 0.11328 0.28125 0.11328 0.39062 0.22266 0.78516 0.39062 1.1758 0.61719 0.39062 0.16797 0.78516 0.39062 1.1211 0.55859 0.50391 0.22266 1.0078 0.44922 1.5117 0.67188 0.61719 0.28125 1.1758 0.55859 1.793 0.78516 1.793 0.78516 3.5859 1.5117 5.4336 2.2383 9.2383 3.5859 19.039 6.1602 29.398 7.7266 1.1211 0.16797 2.2969 0.33594 3.4727 0.50391 9.8008 1.2305 19.992 1.625 30.574 1.1211 23.07-1.1211 46.762-6.3828 70.504-15.68 24.527-9.5742 47.992-23.07 69.719-40.098 21.785-17.023 40.488-36.566 55.719-58.016 14.727-20.777 25.535-42.559 32.199-64.68 6.6641-22.176 8.7344-43.68 6.2148-63.785-0.054688-0.61719-0.16797-1.2891-0.28125-1.9023v-0.28125c-0.11328-0.50391-0.16797-0.95312-0.28125-1.457 0-0.33594-0.11328-0.61719-0.16797-0.95312-0.054687-0.50391-0.16797-1.0078-0.28125-1.5117-0.11328-0.61719-0.22266-1.2305-0.33594-1.793 0-0.16797 0-0.28125-0.054688-0.44922-0.11328-0.50391-0.16797-1.0078-0.28125-1.457 0-0.16797-0.054688-0.33594-0.11328-0.44922-0.11328-0.44922-0.22266-0.95313-0.33594-1.3984-0.16797-0.67188-0.33594-1.3438-0.44922-2.0156-0.054687-0.28125-0.11328-0.61719-0.22266-0.89453-0.11328-0.44922-0.22266-0.95312-0.33594-1.3984 17.359 31.023 26.711 66.586 26.711 102.76 0 19.098-2.5742 37.969-7.5039 56.055-4.9844 18.145-12.375 35.504-22.008 51.633-7.2812 12.207-10.414 26.77-8.9609 42.113z"/>
  <path d="m359.24 238.5c-3.0234 2.3516-4.2578 5.8789-3.1914 8.793 0.83984 2.2969 3.0234 3.6953 5.7109 3.6953h0.39063l102.76-4.9297c12.488-0.61719 24.754-11.426 26.266-23.129 1.3438-10.473 1.457-20.719 0.22266-30.52-1.1211-8.9609-3.3594-17.473-6.5508-25.367-1.625-4.0312-5.0391-6.8867-9.4648-8.0625-6.6094-1.7344-14.895 0.39062-21.617 5.6562l-94.473 73.863zm114.57-73.977c1.9023 0.50391 4.4258 1.7344 5.6562 4.7031 3.0234 7.3906 5.1523 15.457 6.1602 23.855 1.1758 9.2969 1.1211 19.098-0.22266 29.062-1.1758 8.8477-11.312 17.695-20.832 18.145l-102.76 4.9297h-0.11328-0.33594c-0.054687-0.22266 0.054688-1.2305 1.3438-2.2383l94.473-73.863c5.3203-4.1445 11.648-5.9375 16.574-4.6484z"/>
  <path d="m461.05 250.21-102.14 4.9297c-3.3594 0.16797-6.7188 2.4648-8.1758 5.6562-1.0625 2.3516-0.89453 4.8711 0.50391 6.6641l51.238 65.52c2.5742 3.2461 6.5508 5.207 11.258 5.4883h1.1758c6.7773 0 14.223-3.3047 19.656-8.8477 8.9609-9.0156 17.078-18.648 24.246-28.727 6.2734-8.8477 11.703-17.977 16.297-27.16 3.0781-6.2148 3.0781-12.434 0-17.137-2.8555-4.3672-8.0078-6.7188-14.168-6.4414zm9.0156 21c-4.4258 8.9023-9.7422 17.809-15.848 26.375-6.9453 9.8008-14.895 19.266-23.633 28-4.7031 4.7031-10.977 7.4492-16.465 7.1133-2.1836-0.11328-5.1523-0.78516-7.1133-3.3047l-51.238-65.52s0-0.61719 0.44922-1.2305c0.67188-1.0078 1.8477-1.7344 2.9102-1.793l102.14-4.9297c4.1445-0.22266 7.3359 1.1758 9.1289 3.8086 1.9023 2.9102 1.793 7.1133-0.33594 11.426z"/>
  <path d="m348.32 237.38c1.0625 0.72656 2.3516 1.0625 3.6953 1.0625 1.9023 0 3.8633-0.72656 5.6016-2.0703l95.258-74.535c6.6094-5.1523 10.586-12.32 10.695-19.152 0.054688-4.5352-1.6797-8.457-4.9297-11.145-7.8398-6.4414-16.91-11.648-26.938-15.512-8.0625-3.0781-16.742-5.3203-25.816-6.6641-11.703-1.6797-25.703 7.7852-29.344 19.879l-30.406 101.3c-0.83984 2.7422 0 5.375 2.1289 6.832zm3.3594-5.1523 30.406-101.3c2.6328-8.7344 12.375-15.961 20.945-15.961 0.67188 0 1.3984 0 2.0703 0.16797 8.625 1.2305 16.91 3.3594 24.527 6.3281 9.4648 3.6406 18.031 8.5664 25.367 14.617 2.4062 1.9609 2.8555 4.7031 2.8555 6.6641-0.054687 4.9844-3.3047 10.641-8.5117 14.672l-95.258 74.535c-1.2891 1.0078-2.3516 0.89453-2.4648 0.83984 0 0 0-0.22266 0.054687-0.50391z"/>
  <path d="m346.41 271.27c-1.3984-1.793-3.7539-2.5742-6.3281-2.1289-3.4141 0.61719-6.4961 3.3594-7.4492 6.5508l-29.344 97.945c-1.793 5.8789-0.72656 11.48 2.8008 15.289 2.8555 3.0781 6.9453 4.7031 11.648 4.7031 1.625 0 3.2461-0.16797 4.9844-0.55859 10.023-2.1836 20.215-5.3203 30.297-9.2969 11.535-4.4805 22.848-10.078 33.77-16.574 7.0547-4.1992 12.266-11.199 13.551-18.145 0.83984-4.6484-0.054688-9.0156-2.6328-12.266l-51.238-65.52zm48.215 76.777c-1.0078 5.375-5.1523 10.863-10.863 14.281-10.586 6.3281-21.672 11.762-32.871 16.184-9.8008 3.8086-19.711 6.8867-29.457 9.0156-4.7031 1.0625-8.793 0.16797-11.199-2.4062-2.1836-2.3516-2.6875-5.8242-1.5117-9.7422l29.344-97.945c0.28125-1.0078 1.2891-1.9609 2.4648-2.4062 0.44922-0.16797 0.78516-0.22266 1.0078-0.22266h0.33594l51.238 65.52c1.9609 2.5195 1.9023 5.543 1.5117 7.6719z"/>
  <path d="m327.54 237.16c1.1211 1.457 2.9102 2.2383 4.8711 2.2383 0.44922 0 0.95313 0 1.457-0.16797 3.4141-0.61719 6.4961-3.3594 7.4492-6.5508l30.574-101.92c1.7344-5.8242 0.78516-11.367-2.6875-15.176-3.6953-4.0312-9.5742-5.6562-16.184-4.3672-11.426 2.2383-23.07 5.6562-34.551 10.137-11.48 4.4805-22.848 10.078-33.77 16.574-7.0547 4.1992-12.266 11.199-13.551 18.145-0.83984 4.6484 0.054687 9.0156 2.6328 12.266l53.762 68.77zm-50.734-79.969c1.0078-5.375 5.1523-10.863 10.863-14.281 10.641-6.3281 21.672-11.762 32.871-16.184 11.199-4.3672 22.457-7.7266 33.602-9.8555 1.1211-0.22266 2.2383-0.33594 3.3047-0.33594 3.1367 0 5.8242 1.0078 7.5586 2.9102 2.1289 2.3516 2.6328 5.7695 1.457 9.6875l-30.574 101.92c-0.28125 1.0078-1.2891 1.9609-2.4648 2.4062-0.72656 0.28125-1.2305 0.22266-1.3438 0.16797l-53.762-68.711c-1.9609-2.5195-1.9023-5.543-1.5117-7.6719z"/>
  <path d="m269.47 396.31c0.78516 0.11328 1.5117 0.11328 2.2969 0.11328 11.145 0 23.129-8.8477 26.488-20.047l29.566-98.559c0.83984-2.7422 0-5.3203-2.1289-6.832-2.5742-1.7344-6.3281-1.3438-9.2969 1.0078l-94.473 73.863c-6.7188 5.2656-10.809 12.77-10.695 19.602 0.054687 4.5938 2.0156 8.5664 5.543 11.145 6.8867 5.0391 14.617 9.2383 23.016 12.488 9.1836 3.5273 19.207 5.9375 29.68 7.168zm-52.473-30.855c-0.054688-5.0977 3.1914-10.863 8.5117-15.008l94.473-73.863c0.95312-0.72656 1.793-0.89453 2.1836-0.89453h0.28125s0 0.22266-0.054688 0.50391l-29.566 98.559c-2.7422 9.1836-13.719 16.855-22.625 15.848-10.023-1.1211-19.488-3.4141-28.281-6.832-7.9531-3.0781-15.23-7-21.672-11.762-2.5742-1.9023-3.1914-4.6484-3.1914-6.6094z"/>
  <path d="m207.76 258.38h1.0078l106.29-5.0977c3.3594-0.16797 6.7188-2.4648 8.1758-5.6562 1.0625-2.3516 0.89453-4.8711-0.50391-6.6641l-53.762-68.711c-2.5742-3.2461-6.5508-5.207-11.312-5.4883-7.0547-0.44922-15.062 2.9688-20.887 8.793-8.9609 9.0156-17.078 18.648-24.246 28.727-7.168 10.078-13.273 20.551-18.199 31.078-2.8555 6.1055-2.7422 12.207 0.33594 16.742 2.6875 4.0312 7.4492 6.3281 13.047 6.3281zm-8.1758-20.609c4.7617-10.246 10.754-20.383 17.695-30.238 6.9453-9.8008 14.895-19.266 23.633-28 4.4258-4.4258 10.305-7.1133 15.566-7.1133h0.89453c2.1836 0.11328 5.1523 0.78516 7.1133 3.3047l53.762 68.711s0 0.61719-0.44922 1.2305c-0.72656 1.0078-1.8477 1.7344-2.9102 1.793l-106.29 5.0977c-4.0898 0.16797-7.2812-1.1211-9.0703-3.7539-1.9023-2.8555-1.8477-6.8867 0.11328-11.09z"/>
  <path d="m314.72 269.92c2.9688-2.3516 4.2578-5.8789 3.1914-8.793-0.89453-2.4062-3.2461-3.8633-6.1055-3.6953l-105.67 5.0977c-12.602 0.61719-25.145 11.871-26.32 23.688-0.89453 9.1289-0.83984 18.09 0.22266 26.656 1.3438 10.695 4.2578 20.719 8.5664 29.902 1.793 3.8086 5.207 6.4414 9.6328 7.5039 1.3984 0.33594 2.9102 0.50391 4.4258 0.50391 5.543 0 11.535-2.1836 16.742-6.2734l95.258-74.535zm-115.14 74.703c-1.9023-0.44922-4.4258-1.5664-5.7695-4.3672-4.0898-8.5664-6.832-18.031-8.0625-28.113-1.0078-8.1211-1.1211-16.688-0.22266-25.367 0.89453-9.0703 11.09-18.031 20.887-18.535l105.67-5.0977h0.11328 0.33594c0.054688 0.22266-0.054687 1.2305-1.3438 2.2383l-95.258 74.535c-5.1523 4.0312-11.426 5.8242-16.297 4.7031z"/>
  <use x="70" y="644" xlink:href="#t"/>
  <use x="90.550781" y="644" xlink:href="#b"/>
  <use x="104.359375" y="644" xlink:href="#a"/>
  <use x="123.347656" y="644" xlink:href="#i"/>
  <use x="142.242188" y="644" xlink:href="#c"/>
  <use x="155.628906" y="644" xlink:href="#a"/>
  <use x="174.617188" y="644" xlink:href="#h"/>
  <use x="204.410156" y="644" xlink:href="#g"/>
  <use x="224.453125" y="644" xlink:href="#f"/>
  <use x="252.453125" y="644" xlink:href="#e"/>
  <use x="272.972656" y="644" xlink:href="#b"/>
  <use x="286.78125" y="644" xlink:href="#s"/>
  <use x="296.378906" y="644" xlink:href="#r"/>
  <use x="70" y="672" xlink:href="#q"/>
  <use x="82.183594" y="672" xlink:href="#b"/>
  <use x="95.992188" y="672" xlink:href="#d"/>
  <use x="115.226562" y="672" xlink:href="#p"/>
  <use x="154.152344" y="672" xlink:href="#c"/>
  <use x="167.535156" y="672" xlink:href="#o"/>
  <use x="187.46875" y="672" xlink:href="#a"/>
  <use x="216.207031" y="672" xlink:href="#n"/>
  <use x="239.640625" y="672" xlink:href="#d"/>
  <use x="258.878906" y="672" xlink:href="#m"/>
  <use x="278.8125" y="672" xlink:href="#l"/>
  <use x="308.492188" y="672" xlink:href="#e"/>
  <use x="329.015625" y="672" xlink:href="#b"/>
  <use x="342.820312" y="672" xlink:href="#d"/>
  <use x="362.058594" y="672" xlink:href="#k"/>
  <use x="371.65625" y="672" xlink:href="#a"/>
  <use x="390.648438" y="672" xlink:href="#j"/>
  <use x="407.242188" y="672" xlink:href="#c"/>
 </g>
</svg>